<svg id="calendar" xmlns="http://www.w3.org/2000/svg" width="30" height="30" viewBox="0 0 30 30">
  <g id="Group_9" data-name="Group 9">
    <g id="Group_8" data-name="Group 8">
      <path id="Path_276" data-name="Path 276" d="M27.363,3.516h-.879V2.637a2.637,2.637,0,0,0-5.273,0v.879H17.7V2.637a2.637,2.637,0,0,0-5.273,0v.879H8.789V2.637a2.637,2.637,0,0,0-5.273,0v.879H2.637A2.64,2.64,0,0,0,0,6.152V27.363A2.64,2.64,0,0,0,2.637,30H27.363A2.64,2.64,0,0,0,30,27.363V6.152A2.64,2.64,0,0,0,27.363,3.516Zm-4.395-.879a.879.879,0,0,1,1.758,0V6.152a.879.879,0,0,1-1.758,0Zm-8.789,0a.879.879,0,0,1,1.758,0V6.152a.879.879,0,0,1-1.758,0Zm-8.906,0a.879.879,0,0,1,1.758,0V6.152a.879.879,0,0,1-1.758,0ZM28.242,27.363a.88.88,0,0,1-.879.879H2.637a.88.88,0,0,1-.879-.879V12.422H28.242Zm0-16.7H1.758V6.152a.88.88,0,0,1,.879-.879h.879v.879a2.637,2.637,0,0,0,5.273,0V5.273h3.633v.879a2.637,2.637,0,0,0,5.273,0V5.273h3.516v.879a2.637,2.637,0,0,0,5.273,0V5.273h.879a.88.88,0,0,1,.879.879Z" fill="#231834"/>
    </g>
  </g>
  <g id="Group_11" data-name="Group 11" transform="translate(3.516 14.18)">
    <g id="Group_10" data-name="Group 10">
      <path id="Path_277" data-name="Path 277" d="M82.09,242H60.879a.879.879,0,0,0-.879.879v10.547a.879.879,0,0,0,.879.879H82.09a.879.879,0,0,0,.879-.879V242.879A.879.879,0,0,0,82.09,242ZM65.273,252.547H61.758v-3.516h3.516Zm0-5.273H61.758v-3.516h3.516Zm5.391,5.273H67.031v-3.516h3.633Zm0-5.273H67.031v-3.516h3.633Zm5.273,5.273H72.422v-3.516h3.516Zm0-5.273H72.422v-3.516h3.516Zm5.273,5.273H77.7v-3.516h3.516Zm0-5.273H77.7v-3.516h3.516Z" transform="translate(-60 -242)" fill="#231834"/>
    </g>
  </g>
</svg>
