<svg xmlns="http://www.w3.org/2000/svg" width="40.393" height="39" viewBox="0 0 40.393 39">
  <g id="chat" transform="translate(0 -1)">
    <path id="Path_278" data-name="Path 278" d="M17.411,9.586C7.8,9.586,0,16.575,0,25.2a14.411,14.411,0,0,0,2.88,8.6C2.641,36.64,1.953,40.652,0,42.606c0,0,5.9-.829,9.94-3.239,0,0,.006-.007.01-.009,1.249-.77,2.653-1.669,3-1.938a.7.7,0,0,1,.925-.189.711.711,0,0,1,.34.6c0,.405-.006.518-2.543,2.1a19.166,19.166,0,0,0,5.742.873c9.616,0,17.411-6.989,17.411-15.61S27.026,9.586,17.411,9.586Z" transform="translate(0 -2.606)" fill="#0391fd"/>
    <path id="Path_279" data-name="Path 279" d="M43.553,16.61C43.553,7.989,35.758,1,26.143,1A17.655,17.655,0,0,0,10.411,9.917,18.711,18.711,0,0,1,20.571,6.98c9.616,0,17.411,6.989,17.411,15.61a14.45,14.45,0,0,1-3.09,8.875,33.975,33.975,0,0,0,8.661,2.557c-1.953-1.953-2.641-5.966-2.88-8.815A14.411,14.411,0,0,0,43.553,16.61Z" transform="translate(-3.16)" fill="#0f71d3"/>
    <path id="Path_280" data-name="Path 280" d="M27.946,25.393H18.2A.7.7,0,1,1,18.2,24h9.75a.7.7,0,1,1,0,1.393Z" transform="translate(-5.313 -6.982)" fill="#fff"/>
    <path id="Path_281" data-name="Path 281" d="M30.107,32.393H12.7A.7.7,0,1,1,12.7,31H30.107a.7.7,0,1,1,0,1.393Z" transform="translate(-3.643 -9.107)" fill="#fff"/>
    <path id="Path_282" data-name="Path 282" d="M30.107,39.393H12.7A.7.7,0,1,1,12.7,38H30.107a.7.7,0,1,1,0,1.393Z" transform="translate(-3.643 -11.232)" fill="#fff"/>
  </g>
</svg>
