<svg xmlns="http://www.w3.org/2000/svg" width="371.306" height="400.787" viewBox="0 0 371.306 400.787">
  <g id="creative" transform="translate(-15.88)">
    <g id="Group_49" data-name="Group 49" transform="translate(96.75 79.014)">
      <g id="Group_48" data-name="Group 48">
        <path id="Path_389" data-name="Path 389" d="M207.782,85.12A104.856,104.856,0,0,0,103,189.9a119.263,119.263,0,0,0,49.532,95.128V360.7a7.43,7.43,0,0,0,.52,2.525v.594a7.445,7.445,0,0,0,.446.891l26.14,38.913a7.425,7.425,0,0,0,6.164,3.267h43.22a7.425,7.425,0,0,0,6.164-3.267l26.14-38.913a7.454,7.454,0,0,0,.446-.891v-.594a7.433,7.433,0,0,0,.52-2.525V285.031A119.26,119.26,0,0,0,311.822,189.9,104.856,104.856,0,0,0,207.782,85.12Zm17.674,307.144H190.108L173.919,368.2h67.652Zm-58-38.913V333.672h80.648l.074,19.679Zm84.064-78.494v.223a7.425,7.425,0,0,0-3.342,6.238v37.725H167.459v-38.17a7.424,7.424,0,0,0-3.342-6.238,103.966,103.966,0,0,1-46.19-84.955,89.93,89.93,0,0,1,179.786,0A103.966,103.966,0,0,1,251.522,274.857Z" transform="translate(-103 -85.12)" fill="#00b3e3"/>
      </g>
    </g>
    <g id="Group_51" data-name="Group 51" transform="translate(197.077 112.654)">
      <g id="Group_50" data-name="Group 50" transform="translate(0)">
        <path id="Path_390" data-name="Path 390" d="M218.506,121.36a7.426,7.426,0,1,0,0,14.852,55.993,55.993,0,0,1,55.919,55.919,7.426,7.426,0,1,0,14.852,0A70.845,70.845,0,0,0,218.506,121.36Z" transform="translate(-211.08 -121.36)" fill="#00b3e3"/>
      </g>
    </g>
    <g id="Group_53" data-name="Group 53" transform="translate(15.88 175.999)">
      <g id="Group_52" data-name="Group 52">
        <path id="Path_391" data-name="Path 391" d="M76.774,189.6H23.306a7.426,7.426,0,0,0,0,14.852H76.774a7.426,7.426,0,0,0,7.426-7.426h0A7.426,7.426,0,0,0,76.774,189.6Z" transform="translate(-15.88 -189.6)" fill="#00b3e3"/>
      </g>
    </g>
    <g id="Group_55" data-name="Group 55" transform="translate(318.865 175.999)">
      <g id="Group_54" data-name="Group 54" transform="translate(0)">
        <path id="Path_392" data-name="Path 392" d="M403.174,189.6H349.706a7.426,7.426,0,0,0,0,14.852h53.468a7.426,7.426,0,1,0,0-14.852Z" transform="translate(-342.28 -189.6)" fill="#00b3e3"/>
      </g>
    </g>
    <g id="Group_57" data-name="Group 57" transform="translate(67.494 263.927)">
      <g id="Group_56" data-name="Group 56" transform="translate(0)">
        <path id="Path_393" data-name="Path 393" d="M123.308,286.919a7.426,7.426,0,0,0-11.281,0v-.148l-37.947,38.1A7.426,7.426,0,1,0,84.55,335.338L122.5,297.39A7.426,7.426,0,0,0,123.308,286.919Z" transform="translate(-71.483 -284.323)" fill="#00b3e3"/>
      </g>
    </g>
    <g id="Group_59" data-name="Group 59" transform="translate(282.36 50.197)">
      <g id="Group_58" data-name="Group 58" transform="translate(0)">
        <path id="Path_394" data-name="Path 394" d="M352.758,55.862a7.425,7.425,0,0,0-9.66,0L305.15,93.809a7.426,7.426,0,0,0,5.272,12.7l-.074-.074a7.43,7.43,0,0,0,5.272-2.154l37.948-37.947A7.426,7.426,0,0,0,352.758,55.862Z" transform="translate(-302.954 -54.076)" fill="#00b3e3"/>
      </g>
    </g>
    <g id="Group_61" data-name="Group 61" transform="translate(281.96 263.778)">
      <g id="Group_60" data-name="Group 60">
        <path id="Path_395" data-name="Path 395" d="M355.011,326.349a7.388,7.388,0,0,0-1.473-1.494l-37.948-38.1a7.426,7.426,0,1,0-10.471,10.471l37.948,37.947a7.426,7.426,0,1,0,11.944-8.829Z" transform="translate(-302.523 -284.163)" fill="#00b3e3"/>
      </g>
    </g>
    <g id="Group_63" data-name="Group 63" transform="translate(68.305 50.197)">
      <g id="Group_62" data-name="Group 62" transform="translate(0)">
        <path id="Path_396" data-name="Path 396" d="M122.56,93.809,84.613,55.862A7.426,7.426,0,0,0,74.142,66.333l37.947,37.947A7.426,7.426,0,0,0,122.56,93.809Z" transform="translate(-72.356 -54.076)" fill="#00b3e3"/>
      </g>
    </g>
    <g id="Group_65" data-name="Group 65" transform="translate(194.103)">
      <g id="Group_64" data-name="Group 64">
        <path id="Path_397" data-name="Path 397" d="M215.306,0a7.426,7.426,0,0,0-7.426,7.426V61.117a7.425,7.425,0,0,0,7.2,7.645c.075,0,.15,0,.226,0a7.426,7.426,0,0,0,7.426-7.426V7.426A7.426,7.426,0,0,0,215.306,0Z" transform="translate(-207.876)" fill="#00b3e3"/>
      </g>
    </g>
  </g>
</svg>
