<svg id="empresa" xmlns="http://www.w3.org/2000/svg" width="480" height="480" viewBox="0 0 480 480">
  <g id="Group_16" data-name="Group 16">
    <g id="Group_15" data-name="Group 15">
      <rect id="Rectangle_1" data-name="Rectangle 1" width="16" height="16" transform="translate(168 160)" fill="#fff"/>
    </g>
  </g>
  <g id="Group_18" data-name="Group 18">
    <g id="Group_17" data-name="Group 17">
      <rect id="Rectangle_2" data-name="Rectangle 2" width="16" height="16" transform="translate(168 192)" fill="#fff"/>
    </g>
  </g>
  <g id="Group_20" data-name="Group 20">
    <g id="Group_19" data-name="Group 19">
      <rect id="Rectangle_3" data-name="Rectangle 3" width="16" height="16" transform="translate(168 224)" fill="#fff"/>
    </g>
  </g>
  <g id="Group_22" data-name="Group 22">
    <g id="Group_21" data-name="Group 21">
      <rect id="Rectangle_4" data-name="Rectangle 4" width="16" height="16" transform="translate(168 256)" fill="#fff"/>
    </g>
  </g>
  <g id="Group_24" data-name="Group 24">
    <g id="Group_23" data-name="Group 23">
      <rect id="Rectangle_5" data-name="Rectangle 5" width="16" height="16" transform="translate(200 160)" fill="#fff"/>
    </g>
  </g>
  <g id="Group_26" data-name="Group 26">
    <g id="Group_25" data-name="Group 25">
      <rect id="Rectangle_6" data-name="Rectangle 6" width="16" height="16" transform="translate(200 192)" fill="#fff"/>
    </g>
  </g>
  <g id="Group_28" data-name="Group 28">
    <g id="Group_27" data-name="Group 27">
      <rect id="Rectangle_7" data-name="Rectangle 7" width="16" height="16" transform="translate(200 224)" fill="#fff"/>
    </g>
  </g>
  <g id="Group_30" data-name="Group 30">
    <g id="Group_29" data-name="Group 29">
      <rect id="Rectangle_8" data-name="Rectangle 8" width="16" height="16" transform="translate(200 256)" fill="#fff"/>
    </g>
  </g>
  <g id="Group_32" data-name="Group 32">
    <g id="Group_31" data-name="Group 31">
      <rect id="Rectangle_9" data-name="Rectangle 9" width="16" height="16" transform="translate(232 160)" fill="#fff"/>
    </g>
  </g>
  <g id="Group_34" data-name="Group 34">
    <g id="Group_33" data-name="Group 33">
      <rect id="Rectangle_10" data-name="Rectangle 10" width="16" height="16" transform="translate(232 192)" fill="#fff"/>
    </g>
  </g>
  <g id="Group_36" data-name="Group 36">
    <g id="Group_35" data-name="Group 35">
      <rect id="Rectangle_11" data-name="Rectangle 11" width="16" height="16" transform="translate(232 224)" fill="#fff"/>
    </g>
  </g>
  <g id="Group_38" data-name="Group 38">
    <g id="Group_37" data-name="Group 37">
      <rect id="Rectangle_12" data-name="Rectangle 12" width="16" height="16" transform="translate(232 256)" fill="#fff"/>
    </g>
  </g>
  <g id="Group_40" data-name="Group 40">
    <g id="Group_39" data-name="Group 39">
      <rect id="Rectangle_13" data-name="Rectangle 13" width="16" height="16" transform="translate(264 160)" fill="#fff"/>
    </g>
  </g>
  <g id="Group_42" data-name="Group 42">
    <g id="Group_41" data-name="Group 41">
      <rect id="Rectangle_14" data-name="Rectangle 14" width="16" height="16" transform="translate(200 128)" fill="#fff"/>
    </g>
  </g>
  <g id="Group_44" data-name="Group 44">
    <g id="Group_43" data-name="Group 43">
      <rect id="Rectangle_15" data-name="Rectangle 15" width="16" height="16" transform="translate(232 128)" fill="#fff"/>
    </g>
  </g>
  <g id="Group_46" data-name="Group 46">
    <g id="Group_45" data-name="Group 45">
      <rect id="Rectangle_16" data-name="Rectangle 16" width="16" height="16" transform="translate(264 128)" fill="#fff"/>
    </g>
  </g>
  <g id="Group_48" data-name="Group 48">
    <g id="Group_47" data-name="Group 47">
      <rect id="Rectangle_17" data-name="Rectangle 17" width="16" height="16" transform="translate(264 192)" fill="#fff"/>
    </g>
  </g>
  <g id="Group_50" data-name="Group 50">
    <g id="Group_49" data-name="Group 49">
      <rect id="Rectangle_18" data-name="Rectangle 18" width="16" height="16" transform="translate(264 224)" fill="#fff"/>
    </g>
  </g>
  <g id="Group_52" data-name="Group 52">
    <g id="Group_51" data-name="Group 51">
      <rect id="Rectangle_19" data-name="Rectangle 19" width="16" height="16" transform="translate(264 256)" fill="#fff"/>
    </g>
  </g>
  <g id="Group_54" data-name="Group 54">
    <g id="Group_53" data-name="Group 53">
      <rect id="Rectangle_20" data-name="Rectangle 20" width="16" height="16" transform="translate(296 160)" fill="#fff"/>
    </g>
  </g>
  <g id="Group_56" data-name="Group 56">
    <g id="Group_55" data-name="Group 55">
      <rect id="Rectangle_21" data-name="Rectangle 21" width="16" height="16" transform="translate(296 192)" fill="#fff"/>
    </g>
  </g>
  <g id="Group_58" data-name="Group 58">
    <g id="Group_57" data-name="Group 57">
      <rect id="Rectangle_22" data-name="Rectangle 22" width="16" height="16" transform="translate(296 224)" fill="#fff"/>
    </g>
  </g>
  <g id="Group_60" data-name="Group 60">
    <g id="Group_59" data-name="Group 59">
      <rect id="Rectangle_23" data-name="Rectangle 23" width="16" height="16" transform="translate(296 256)" fill="#fff"/>
    </g>
  </g>
  <g id="Group_62" data-name="Group 62">
    <g id="Group_61" data-name="Group 61">
      <path id="Path_8" data-name="Path 8" d="M472.009,120H352V8a8,8,0,0,0-7.991-8H136a8,8,0,0,0-8,7.991V120H8a8,8,0,0,0-8,7.991V416a8,8,0,0,0,7.991,8H24.723A48.008,48.008,0,0,0,24,432v40a8,8,0,0,0,7.991,8H448a8,8,0,0,0,8-7.991V432a47.8,47.8,0,0,0-.723-8H472a8,8,0,0,0,8-7.991V128A8,8,0,0,0,472.009,120ZM344,344a16,16,0,1,1-16-16A16,16,0,0,1,344,344ZM152,328a16,16,0,1,1-16,16A16,16,0,0,1,152,328ZM104,464H40V432a32,32,0,0,1,64,0ZM56,368a16,16,0,1,1,16,16A16,16,0,0,1,56,368Zm49.212,29.425a48.225,48.225,0,0,0-10.064-7.449,32,32,0,1,0-46.3,0A48.31,48.31,0,0,0,30.494,408H16V136H128V323.056a31.564,31.564,0,0,0,.852,42.92A48.136,48.136,0,0,0,105.212,397.425ZM184,464H120V408a32,32,0,0,1,64,0Zm96,0H200V408a40,40,0,0,1,80,0ZM216,328a24,24,0,1,1,24,24A24,24,0,0,1,216,328Zm72.722,52.495a56.349,56.349,0,0,0-22.953-22.16,40,40,0,1,0-51.538,0,56.349,56.349,0,0,0-22.953,22.16,48.319,48.319,0,0,0-16.13-14.519A31.77,31.77,0,0,0,144,313.136V16H336V313.136a31.859,31.859,0,0,0-31.148,52.84A48.319,48.319,0,0,0,288.722,380.495ZM360,432v32H296V408a32,32,0,0,1,64,0Zm80,32H376V432a32,32,0,0,1,64,0Zm-48-96a16,16,0,1,1,16,16A16,16,0,0,1,392,368Zm72,40H449.506a48.31,48.31,0,0,0-18.358-18.024,32,32,0,1,0-46.3,0,48.2,48.2,0,0,0-10.064,7.449,48.133,48.133,0,0,0-23.64-31.449,31.564,31.564,0,0,0,.853-42.92V136H464V408Z" fill="#fff"/>
    </g>
  </g>
  <g id="Group_64" data-name="Group 64">
    <g id="Group_63" data-name="Group 63">
      <rect id="Rectangle_24" data-name="Rectangle 24" width="16" height="128" transform="translate(376 184)" fill="#fff"/>
    </g>
  </g>
  <g id="Group_66" data-name="Group 66">
    <g id="Group_65" data-name="Group 65">
      <rect id="Rectangle_25" data-name="Rectangle 25" width="16" height="128" transform="translate(424 184)" fill="#fff"/>
    </g>
  </g>
  <g id="Group_68" data-name="Group 68">
    <g id="Group_67" data-name="Group 67">
      <rect id="Rectangle_26" data-name="Rectangle 26" width="16" height="128" transform="translate(40 184)" fill="#fff"/>
    </g>
  </g>
  <g id="Group_70" data-name="Group 70">
    <g id="Group_69" data-name="Group 69">
      <rect id="Rectangle_27" data-name="Rectangle 27" width="16" height="128" transform="translate(88 184)" fill="#fff"/>
    </g>
  </g>
  <g id="Group_72" data-name="Group 72">
    <g id="Group_71" data-name="Group 71">
      <path id="Path_9" data-name="Path 9" d="M288.009,32H192a8,8,0,0,0-8,7.991V104a8,8,0,0,0,7.991,8H288a8,8,0,0,0,8-7.991V40A8,8,0,0,0,288.009,32ZM280,96H200V48h80Z" fill="#fff"/>
    </g>
  </g>
</svg>
