<svg xmlns="http://www.w3.org/2000/svg" width="18.262" height="36.151" viewBox="0 0 18.262 36.151">
  <path id="facebook" d="M127.265,19.254h3.963V35.568a.583.583,0,0,0,.583.583h6.719a.583.583,0,0,0,.583-.583V19.331h4.556a.583.583,0,0,0,.579-.516l.692-6.006a.583.583,0,0,0-.579-.65h-5.247V8.394c0-1.135.611-1.71,1.816-1.71h3.431a.583.583,0,0,0,.583-.583V.587A.583.583,0,0,0,144.361,0h-4.728c-.033,0-.107,0-.217,0a9.061,9.061,0,0,0-5.925,2.233,6.213,6.213,0,0,0-2.066,5.523v4.4h-4.16a.583.583,0,0,0-.583.583v5.929A.583.583,0,0,0,127.265,19.254Z" transform="translate(-126.682)" fill="#385c8e"/>
</svg>
