<?xml version="1.0" encoding="iso-8859-1"?>
<!-- Generator: Adobe Illustrator 19.0.0, SVG Export Plug-In . SVG Version: 6.00 Build 0)  -->
<svg version="1.1" id="Capa_1" xmlns="http://www.w3.org/2000/svg" xmlns:xlink="http://www.w3.org/1999/xlink" x="0px" y="0px"
	 viewBox="0 0 512 512" style="enable-background:new 0 0 512 512;" xml:space="preserve">
<path style="fill:#19DEC1;" d="M271,317v60c0,8.399-6.599,15-15,15s-15-6.601-15-15v-60c0-8.401,6.599-16,15-16S271,308.599,271,317
	z"/>
<path style="fill:#17CEB4;" d="M271,317v60c0,8.399-6.599,15-15,15v-91C264.401,301,271,308.599,271,317z"/>
<g>
	<path style="fill:#19DEC1;" d="M451,407v30c0,8.399-6.599,15-15,15s-15-6.601-15-15v-30c0-8.401-6.599-15-15-15H106
		c-8.401,0-15,6.599-15,15v30c0,8.399-6.599,15-15,15s-15-6.601-15-15v-30c0-24.901,20.099-45,45-45h300
		C430.901,362,451,382.099,451,407z"/>
	<path style="fill:#19DEC1;" d="M196,452c-8.291,0-15-6.709-15-15v-60c0-8.291,6.709-15,15-15s15,6.709,15,15v60
		C211,445.291,204.291,452,196,452z"/>
</g>
<g>
	<path style="fill:#17CEB4;" d="M316,452c-8.291,0-15-6.709-15-15v-60c0-8.291,6.709-15,15-15s15,6.709,15,15v60
		C331,445.291,324.291,452,316,452z"/>
	<path style="fill:#17CEB4;" d="M451,407v30c0,8.399-6.599,15-15,15s-15-6.601-15-15v-30c0-8.401-6.599-15-15-15H256v-30h150
		C430.901,362,451,382.099,451,407z"/>
</g>
<path style="fill:#57555C;" d="M391,256v61c0,8.401-6.599,15-15,15H136c-8.401,0-15-6.599-15-15v-61c0-50.4,28.2-93.9,69.3-117.299
	h131.4C362.8,162.1,391,205.6,391,256z"/>
<path style="fill:#3C3A41;" d="M391,256v61c0,8.401-6.599,15-15,15H256V138.701h65.7C362.8,162.1,391,205.6,391,256z"/>
<path style="fill:#D9D9D9;" d="M321.7,138.701L268.299,204.7c-2.699,3.9-7.5,6.301-12.299,6.301s-9.6-2.401-12.299-6.301
	L190.3,138.701C209.801,127.899,232,121,256,121S302.199,127.899,321.7,138.701z"/>
<path style="fill:#C8C6CD;" d="M321.7,138.701L268.299,204.7c-2.699,3.9-7.5,6.301-12.299,6.301v-90
	C280,121,302.199,127.899,321.7,138.701z"/>
<path style="fill:#E5E5E5;" d="M299.5,249.401l-30-60c-2.701-5.101-8.101-7.8-13.5-7.8s-10.8,2.699-13.5,7.8l-30,60
	c-2.699,5.698-1.8,12.599,3.001,17.098l30,30C248.2,299.5,252.1,301,256,301s7.8-1.5,10.499-4.501l30-30
	C301.3,262,302.199,255.099,299.5,249.401z"/>
<path style="fill:#D9D9D9;" d="M296.499,266.499l-30,30C263.8,299.5,259.9,301,256,301V181.601c5.4,0,10.8,2.699,13.5,7.8l30,60
	C302.199,255.099,301.3,262,296.499,266.499z"/>
<path style="fill:#787780;" d="M256,0c-41.4,0-75,34.6-75,76s33.6,75,75,75s75-33.6,75-75S297.4,0,256,0z"/>
<path style="fill:#57555C;" d="M331,76c0,41.4-33.6,75-75,75V0C297.4,0,331,34.6,331,76z"/>
<g>
	<path style="fill:#17ACE8;" d="M76,512c-24.814,0-45-20.186-45-45s20.186-45,45-45s45,20.186,45,45S100.814,512,76,512z"/>
	<path style="fill:#17ACE8;" d="M196,512c-24.814,0-45-20.186-45-45s20.186-45,45-45s45,20.186,45,45S220.814,512,196,512z"/>
</g>
<g>
	<path style="fill:#1689FC;" d="M316,512c-24.814,0-45-20.186-45-45s20.186-45,45-45s45,20.186,45,45S340.814,512,316,512z"/>
	<path style="fill:#1689FC;" d="M436,512c-24.814,0-45-20.186-45-45s20.186-45,45-45s45,20.186,45,45S460.814,512,436,512z"/>
</g>
<g>
</g>
<g>
</g>
<g>
</g>
<g>
</g>
<g>
</g>
<g>
</g>
<g>
</g>
<g>
</g>
<g>
</g>
<g>
</g>
<g>
</g>
<g>
</g>
<g>
</g>
<g>
</g>
<g>
</g>
</svg>
