<svg height="512pt" viewBox="-31 0 512 512" width="512pt" xmlns="http://www.w3.org/2000/svg"><path d="m450 0v452l-195 13.199219-195 12.902343-30-268.101562 30-210zm0 0" fill="#b35f49"/><path d="m450 0v452l-195 13.199219v-465.199219zm0 0" fill="#99503d"/><path d="m45 0c-24.851562 0-45 20.148438-45 45v437l60-4v-478zm0 0" fill="#53433f"/><path d="m450 452v60h-420c-16.5 0-30-13.5-30-30s13.5-30 30-30zm0 0" fill="#fed2a4"/><path d="m255 452h195v60h-195zm0 0" fill="#ffbd86"/><path d="m315 120h-120c-24.902344 0-45 20.097656-45 45 0 19.5 12.597656 36 30 42.300781v108.699219h150v-108.699219c17.402344-6.300781 30-22.800781 30-42.300781 0-24.902344-20.097656-45-45-45zm0 0" fill="#fed2a4"/><path d="m360 165c0 19.5-12.597656 36-30 42.300781v108.699219h-75v-196h60c24.902344 0 45 20.097656 45 45zm0 0" fill="#ffbd86"/><path d="m315 150h-120c-8.402344 0-15 6.597656-15 15 0 8.398438 6.597656 15 15 15s15-6.601562 15-15h30c0 19.5-12.597656 36-30 42.300781v108.699219h90v-108.699219c-17.402344-6.300781-30-22.800781-30-42.300781h30c0 8.398438 6.597656 15 15 15s15-6.601562 15-15c0-8.402344-6.597656-15-15-15zm0 0" fill="#ffbd86"/><path d="m300 316h-45v-166h60c8.402344 0 15 6.597656 15 15 0 8.398438-6.597656 15-15 15s-15-6.601562-15-15h-30c0 19.5 12.597656 36 30 42.300781zm0 0" fill="#f6a96c"/><path d="m240 210h30v106h-30zm0 0" fill="#fed2a4"/><path d="m255 210h15v106h-15zm0 0" fill="#ffbd86"/><path d="m150 301h210v30h-210zm0 0" fill="#f6a96c"/><path d="m255 301h105v30h-105zm0 0" fill="#ea9b58"/></svg>