<svg xmlns="http://www.w3.org/2000/svg" width="296.305" height="430.113" viewBox="0 0 296.305 430.113">
  <g id="i-location" transform="translate(-66.904)">
    <path id="Facebook_Places" d="M356.208,107.051c-1.531-5.738-4.64-11.852-6.94-17.205C321.746,23.7,261.611,0,213.055,0c-65,0-136.592,43.586-146.15,133.427v18.355c0,.766.264,7.647.639,11.089,5.358,42.816,39.143,88.32,64.375,131.136,27.146,45.873,55.314,91,83.221,136.106,17.208-29.436,34.354-59.259,51.17-87.933,4.583-8.415,9.9-16.825,14.491-24.857,3.058-5.348,8.9-10.7,11.569-15.672,27.145-49.7,70.838-99.782,70.838-149.1V132.285C363.209,126.938,356.581,108.2,356.208,107.051ZM214.245,199.193c-19.107,0-40.021-9.554-50.344-35.939-1.538-4.2-1.414-12.617-1.414-13.388V138.014c0-33.636,28.56-48.932,53.406-48.932,30.588,0,54.245,24.472,54.245,55.06S244.833,199.193,214.245,199.193Z" fill="#888"/>
  </g>
</svg>
