<?xml version="1.0" encoding="iso-8859-1"?>
<!-- Generator: Adobe Illustrator 19.0.0, SVG Export Plug-In . SVG Version: 6.00 Build 0)  -->
<svg xmlns="http://www.w3.org/2000/svg" xmlns:xlink="http://www.w3.org/1999/xlink" version="1.1" id="Layer_1" x="0px" y="0px" viewBox="0 0 511.999 511.999" style="enable-background:new 0 0 511.999 511.999;" xml:space="preserve" width="512" height="512">
<g>
	<g>
		<path style="fill:#663325;" d="M346,0v30c-41.4,0-75,33.6-75,75h-30c0-19.501,5.4-38.101,15-53.701C274.299,20.7,307.599,0,346,0z    "/>
	</g>
	<path style="fill:#3C1B13;" d="M271,105h-15V51.299C274.299,20.7,307.599,0,346,0v30C304.6,30,271,63.6,271,105z"/>
	<path style="fill:#FF9100;" d="M421,225v48.3c0,98.699-55.499,194.899-165,238.7c-108.9-43.5-165-139.4-165-238.7V225H421z"/>
	<path style="fill:#FF641A;" d="M421,225v48.3c0,98.699-55.499,194.899-165,238.7V225H421z"/>
	<g>
		<path style="fill:#8C4A37;" d="M316,90H196C121.6,90,61,150.599,61,225v15h390v-15C451,150.599,390.399,90,316,90z"/>
	</g>
	<path style="fill:#663325;" d="M451,225v15H256V90h60C390.399,90,451,150.599,451,225z"/>
</g>















</svg>
