<svg id="i-time" xmlns="http://www.w3.org/2000/svg" width="97.16" height="97.16" viewBox="0 0 97.16 97.16">
  <g id="Group_104" data-name="Group 104">
    <path id="Path_406" data-name="Path 406" d="M48.58,0A48.58,48.58,0,1,0,97.16,48.58,48.635,48.635,0,0,0,48.58,0Zm0,86.823A38.243,38.243,0,1,1,86.824,48.58,38.287,38.287,0,0,1,48.58,86.823Z" fill="#888"/>
    <path id="Path_407" data-name="Path 407" d="M73.9,47.08H52.066V20.83a4,4,0,1,0-8,0V51.08a4,4,0,0,0,4,4H73.9a4,4,0,0,0,0-8Z" fill="#888"/>
  </g>
</svg>
