<svg id="internet" xmlns="http://www.w3.org/2000/svg" width="108.636" height="108.637" viewBox="0 0 108.636 108.637">
  <g id="Group_16" data-name="Group 16" transform="translate(0)">
    <g id="Group_15" data-name="Group 15" transform="translate(0)">
      <path id="Path_286" data-name="Path 286" d="M189.978,87.695a27.276,27.276,0,0,0-6.884-4.866A32.189,32.189,0,0,1,186.3,89.27,32.029,32.029,0,0,0,189.978,87.695Z" transform="translate(-116.792 -52.835)" fill="#00b3e3"/>
      <path id="Path_287" data-name="Path 287" d="M112.6,124.861h11.663v-9.882a49.132,49.132,0,0,1-10-1.445A49.654,49.654,0,0,0,112.6,124.861Z" transform="translate(-71.828 -72.421)" fill="#00b3e3"/>
      <path id="Path_288" data-name="Path 288" d="M114.044,165.6a49.019,49.019,0,0,1,10.223-1.519v-8.9H112.6A50.213,50.213,0,0,0,114.044,165.6Z" transform="translate(-71.829 -98.99)" fill="#00b3e3"/>
      <path id="Path_289" data-name="Path 289" d="M120.412,85.572a45.292,45.292,0,0,0,8.835,1.257V75.3q-.816.056-1.617.161C124.744,77.211,122.215,80.824,120.412,85.572Z" transform="translate(-76.809 -48.032)" fill="#00b3e3"/>
      <path id="Path_290" data-name="Path 290" d="M96.922,199.084a27.246,27.246,0,0,0,8.494,5.79,32.209,32.209,0,0,1-3.926-7.894A30.749,30.749,0,0,0,96.922,199.084Z" transform="translate(-61.825 -125.649)" fill="#00b3e3"/>
      <path id="Path_291" data-name="Path 291" d="M106.519,81.26A27.207,27.207,0,0,0,98.7,86.416a31.447,31.447,0,0,0,4.221,1.856A31.517,31.517,0,0,1,106.519,81.26Z" transform="translate(-62.961 -51.834)" fill="#00b3e3"/>
      <path id="Path_292" data-name="Path 292" d="M86.849,105.913a34.685,34.685,0,0,1-5.688-2.592A26.983,26.983,0,0,0,75.3,118.346h9.746A53.356,53.356,0,0,1,86.849,105.913Z" transform="translate(-48.032 -65.906)" fill="#00b3e3"/>
      <path id="Path_293" data-name="Path 293" d="M85.047,155.187H75.3a26.973,26.973,0,0,0,5.331,14.35,34.177,34.177,0,0,1,5.99-2.815A54,54,0,0,1,85.047,155.187Z" transform="translate(-48.033 -98.99)" fill="#00b3e3"/>
      <path id="Path_294" data-name="Path 294" d="M127.148,202.509c.512.064,1.027.116,1.548.151V190.147a45.31,45.31,0,0,0-9.148,1.347C121.379,196.7,124.06,200.67,127.148,202.509Z" transform="translate(-76.258 -121.29)" fill="#00b3e3"/>
      <path id="Path_295" data-name="Path 295" d="M195.766,166.709a34.369,34.369,0,0,1,5.4,2.476,26.962,26.962,0,0,0,5.077-14h-8.906A53.9,53.9,0,0,1,195.766,166.709Z" transform="translate(-124.875 -98.992)" fill="#00b3e3"/>
      <path id="Path_296" data-name="Path 296" d="M183.011,204.325a27.263,27.263,0,0,0,7.553-5.522,31.241,31.241,0,0,0-4.018-1.794A33.013,33.013,0,0,1,183.011,204.325Z" transform="translate(-116.739 -125.667)" fill="#00b3e3"/>
      <path id="Path_297" data-name="Path 297" d="M54.32,0a54.319,54.319,0,1,0,54.319,54.318A54.318,54.318,0,0,0,54.32,0Zm0,87.077A32.759,32.759,0,1,1,87.079,54.319,32.8,32.8,0,0,1,54.321,87.077Z" transform="translate(-0.003)" fill="#00b3e3"/>
      <path id="Path_298" data-name="Path 298" d="M157.913,75.626a27.278,27.278,0,0,0-2.728-.327V86.864a45.689,45.689,0,0,0,9.673-1.3C163.112,80.967,160.686,77.434,157.913,75.626Z" transform="translate(-98.99 -48.031)" fill="#00b3e3"/>
      <path id="Path_299" data-name="Path 299" d="M195.121,106.482a53.3,53.3,0,0,1,1.805,12.436h8.905a26.958,26.958,0,0,0-5.607-14.7A35.278,35.278,0,0,1,195.121,106.482Z" transform="translate(-124.464 -66.478)" fill="#00b3e3"/>
      <path id="Path_300" data-name="Path 300" d="M155.185,202.6c.9-.061,1.792-.168,2.668-.315,2.97-1.905,5.543-5.795,7.319-10.845a45.688,45.688,0,0,0-9.987-1.388Z" transform="translate(-98.99 -121.227)" fill="#00b3e3"/>
      <path id="Path_301" data-name="Path 301" d="M166.019,113.508a49.411,49.411,0,0,1-10.834,1.486v9.851h12.506A49.7,49.7,0,0,0,166.019,113.508Z" transform="translate(-98.99 -72.404)" fill="#00b3e3"/>
      <path id="Path_302" data-name="Path 302" d="M167.69,155.187h-12.5v8.867a49.232,49.232,0,0,1,11.071,1.523A50.145,50.145,0,0,0,167.69,155.187Z" transform="translate(-98.99 -98.99)" fill="#00b3e3"/>
    </g>
  </g>
</svg>
