<svg id="phone-book" xmlns="http://www.w3.org/2000/svg" width="108.638" height="108.637" viewBox="0 0 108.638 108.637">
  <g id="Group_20" data-name="Group 20" transform="translate(0 0)">
    <g id="Group_19" data-name="Group 19" transform="translate(0 0)">
      <path id="Path_304" data-name="Path 304" d="M54.317,0A54.319,54.319,0,1,0,108.638,54.32,54.319,54.319,0,0,0,54.317,0Zm22.074,78.63v3.757a3.757,3.757,0,0,1-3.757,3.757H35.065a7.514,7.514,0,0,1-7.514-7.514V31.358a7.514,7.514,0,0,1,7.514-7.514H72.634A3.757,3.757,0,0,1,76.39,27.6v3.757h0V78.631ZM83.9,31.358V82.388a3.757,3.757,0,0,1-3.757,3.757H79.131a7.457,7.457,0,0,0,1.016-3.757V27.6a7.457,7.457,0,0,0-1.016-3.757h1.016A3.757,3.757,0,0,1,83.9,27.6Z" transform="translate(0 -0.001)" fill="#00b3e3"/>
      <path id="Path_305" data-name="Path 305" d="M123.593,125.2s-1.416-1.7-2.983-.527c-1.168.873-3.268,2.816-3.772,3.287a41.976,41.976,0,0,1-5.586-3.579,29.364,29.364,0,0,1-6.211-7.428l-.805-1.518c.281-.3,2.43-2.6,3.359-3.853,1.17-1.567-.526-2.982-.526-2.982s-4.774-4.774-5.861-5.721a2.34,2.34,0,0,0-2.34-.423c-2.287,1.478-4.657,2.762-4.8,8.94,0,5.783,4.385,11.747,9.131,16.364,4.755,5.215,11.285,10.441,17.6,10.436,6.176-.139,7.459-2.51,8.937-4.8a2.336,2.336,0,0,0-.42-2.339C128.367,129.971,123.593,125.2,123.593,125.2Z" transform="translate(-60.006 -65.261)" fill="#00b3e3"/>
    </g>
  </g>
</svg>
