<svg id="placeholder" xmlns="http://www.w3.org/2000/svg" width="108.637" height="108.638" viewBox="0 0 108.637 108.638">
  <g id="Group_18" data-name="Group 18" transform="translate(0)">
    <g id="Group_17" data-name="Group 17">
      <ellipse id="Ellipse_6" data-name="Ellipse 6" cx="8.745" cy="8.745" rx="8.745" ry="8.745" transform="translate(45.732 31.296)" fill="#00b3e3"/>
      <path id="Path_303" data-name="Path 303" d="M54.318,0a54.319,54.319,0,1,0,54.319,54.318A54.319,54.319,0,0,0,54.318,0Zm-.113,24.87c.038,0,.076,0,.114,0s.075,0,.114,0a16.939,16.939,0,0,1,16.6,16.864c0,11.193-11.959,22.526-16.712,26.587-.318-.272-.67-.578-1.046-.913l-.018-.016C48,62.719,37.608,52.166,37.608,41.734A16.939,16.939,0,0,1,54.206,24.87ZM54.555,84.1C44.538,84.1,34.4,81.231,34.4,75.74c0-3.853,4.994-6.416,11.432-7.6,1.245,1.252,2.424,2.356,3.458,3.277-7.013.783-11.133,3-11.133,4.325,0,1.624,6.227,4.608,16.4,4.608s16.4-2.984,16.4-4.608c0-1.349-4.294-3.625-11.562-4.364,1.043-.932,2.231-2.046,3.486-3.311,6.632,1.154,11.832,3.743,11.832,7.676C74.715,81.231,64.574,84.1,54.555,84.1Z" transform="translate(-0.001)" fill="#00b3e3"/>
    </g>
  </g>
</svg>
