<svg xmlns="http://www.w3.org/2000/svg" width="40.545" height="38.664" viewBox="0 0 40.545 38.664">
  <g id="star" transform="translate(0 -11.877)">
    <path id="Path_283" data-name="Path 283" d="M39.588,25.844,26.455,24.626,21.239,12.513a1.052,1.052,0,0,0-1.933,0L14.089,24.626.956,25.844a1.052,1.052,0,0,0-.6,1.838l9.909,8.7-2.9,12.866A1.052,1.052,0,0,0,8.932,50.39l11.34-6.734,11.34,6.734a1.052,1.052,0,0,0,1.564-1.136l-2.9-12.866,9.909-8.7A1.052,1.052,0,0,0,39.588,25.844Z" transform="translate(0)" fill="#ffdc64"/>
    <path id="Path_284" data-name="Path 284" d="M21.239,12.513a1.052,1.052,0,0,0-1.933,0L14.089,24.626.956,25.844a1.052,1.052,0,0,0-.6,1.838l9.909,8.7-2.9,12.866A1.052,1.052,0,0,0,8.932,50.39l2.531-1.5A46.415,46.415,0,0,1,23.818,18.5Z" transform="translate(0)" fill="#ffc850"/>
  </g>
</svg>
