<svg id="tips" xmlns="http://www.w3.org/2000/svg" width="168" height="168" viewBox="0 0 168 168">
  <circle id="Ellipse_4" data-name="Ellipse 4" cx="84" cy="84" r="84" fill="#ea971e"/>
  <path id="Path_9" data-name="Path 9" d="M130.2,100.089a41.178,41.178,0,0,0,15.083,31.894,34.213,34.213,0,0,1,12.484,26.4v.015a5.234,5.234,0,0,0,1.538,3.713l4.109,4.109H160.1a1.615,1.615,0,0,0-1.616,1.616V170.6a1.611,1.611,0,0,0,.469,1.138h0l2.584,2.584a1.612,1.612,0,0,0-1.053,1.509V178.6a1.605,1.605,0,0,0,.561,1.215l-.008.008,2.9,2.9a1.608,1.608,0,0,0-.449,1.113V186.6a1.6,1.6,0,0,0,.566,1.219l-.008.008,18.9,18.9a84.015,84.015,0,0,0,72.508-81.019L201.512,71.776A41.276,41.276,0,0,0,130.2,100.089Z" transform="translate(-87.477 -39.514)" fill="#c27526"/>
  <g id="Group_5" data-name="Group 5" transform="translate(42.722 19.297)">
    <path id="Path_10" data-name="Path 10" d="M242.384,390.537a1.616,1.616,0,0,1-1.616,1.616H218a1.616,1.616,0,0,1-1.616-1.616V387.77A1.616,1.616,0,0,1,218,386.154h22.764a1.616,1.616,0,0,1,1.616,1.616Z" transform="translate(-188.108 -278.745)" fill="#fff"/>
    <path id="Path_11" data-name="Path 11" d="M244.479,414.914a1.616,1.616,0,0,1-1.616,1.616H224.1a1.616,1.616,0,0,1-1.616-1.616v-2.767a1.616,1.616,0,0,1,1.616-1.616h18.764a1.616,1.616,0,0,1,1.616,1.616Z" transform="translate(-192.202 -295.123)" fill="#fff"/>
    <path id="Path_12" data-name="Path 12" d="M247.621,439.29a1.616,1.616,0,0,1-1.616,1.616H233.24a1.616,1.616,0,0,1-1.616-1.616v-2.767a1.616,1.616,0,0,1,1.616-1.616h12.766a1.616,1.616,0,0,1,1.616,1.616v2.767Z" transform="translate(-198.344 -311.501)" fill="#fff"/>
    <path id="Path_13" data-name="Path 13" d="M171.477,58.811a41.273,41.273,0,0,0-26.2,73.172,34.213,34.213,0,0,1,12.484,26.4v.015a5.251,5.251,0,0,0,5.251,5.251h16.922a5.251,5.251,0,0,0,5.251-5.251v-.015a34.176,34.176,0,0,1,12.484-26.4,41.273,41.273,0,0,0-26.2-73.172ZM190.26,111.9a1.616,1.616,0,0,1-1.616,1.616H173.906v39.877a1.616,1.616,0,0,1-1.616,1.616h-1.625a1.616,1.616,0,0,1-1.616-1.616V113.515H154.311A1.616,1.616,0,0,1,152.7,111.9v-1.625a1.616,1.616,0,0,1,1.616-1.616h34.333a1.616,1.616,0,0,1,1.616,1.616Z" transform="translate(-130.199 -58.811)" fill="#fff"/>
  </g>
</svg>
