<svg xmlns="http://www.w3.org/2000/svg" width="44.494" height="36.151" viewBox="0 0 44.494 36.151">
  <path id="twitter" d="M44.494,52.28a19.018,19.018,0,0,1-5.256,1.44,9.07,9.07,0,0,0,4.013-5.042,18.229,18.229,0,0,1-5.784,2.208,9.121,9.121,0,0,0-15.779,6.237A9.392,9.392,0,0,0,21.9,59.2,25.819,25.819,0,0,1,3.1,49.663,9.124,9.124,0,0,0,5.9,61.854,9.008,9.008,0,0,1,1.78,60.731v.1a9.164,9.164,0,0,0,7.308,8.963,9.1,9.1,0,0,1-2.392.3,8.066,8.066,0,0,1-1.727-.156,9.209,9.209,0,0,0,8.523,6.354,18.328,18.328,0,0,1-11.31,3.89A17.085,17.085,0,0,1,0,80.058a25.68,25.68,0,0,0,13.993,4.093c16.785,0,25.962-13.9,25.962-25.957,0-.4-.014-.793-.033-1.179A18.2,18.2,0,0,0,44.494,52.28Z" transform="translate(0 -48)" fill="#03a9f4"/>
</svg>
